TITLE ""
FILE "1Q_t_0288-0300.mp3" MP3
  TRACK 01 AUDIO
    TITLE "1Q_t_0288-0300_01"
    INDEX 01 00:00:00
  TRACK 02 AUDIO
    TITLE "1Q_t_0288-0300_02"
    INDEX 01 00:01:18
  TRACK 03 AUDIO
    TITLE "1Q_t_0288-0300_03"
    INDEX 01 00:01:33
  TRACK 04 AUDIO
    TITLE "1Q_t_0288-0300_04"
    INDEX 01 00:04:12
  TRACK 05 AUDIO
    TITLE "1Q_t_0288-0300_05"
    INDEX 01 00:04:26
  TRACK 06 AUDIO
    TITLE "1Q_t_0288-0300_06"
    INDEX 01 00:09:13
  TRACK 07 AUDIO
    TITLE "1Q_t_0288-0300_07"
    INDEX 01 00:09:66
  TRACK 08 AUDIO
    TITLE "1Q_t_0288-0300_08"
    INDEX 01 00:10:66
  TRACK 09 AUDIO
    TITLE "1Q_t_0288-0300_09"
    INDEX 01 00:11:08
  TRACK 10 AUDIO
    TITLE "1Q_t_0288-0300_10"
    INDEX 01 00:13:38
  TRACK 11 AUDIO
    TITLE "1Q_t_0288-0300_11"
    INDEX 01 00:13:54
  TRACK 12 AUDIO
    TITLE "1Q_t_0288-0300_12"
    INDEX 01 00:18:47
  TRACK 13 AUDIO
    TITLE "1Q_t_0288-0300_13"
    INDEX 01 00:19:29
  TRACK 14 AUDIO
    TITLE "1Q_t_0288-0300_14"
    INDEX 01 00:20:33
  TRACK 15 AUDIO
    TITLE "1Q_t_0288-0300_15"
    INDEX 01 00:20:50
  TRACK 16 AUDIO
    TITLE "1Q_t_0288-0300_16"
    INDEX 01 00:23:11
  TRACK 17 AUDIO
    TITLE "1Q_t_0288-0300_17"
    INDEX 01 00:23:25
  TRACK 18 AUDIO
    TITLE "1Q_t_0288-0300_18"
    INDEX 01 00:29:67
  TRACK 19 AUDIO
    TITLE "1Q_t_0288-0300_19"
    INDEX 01 00:30:47
  TRACK 20 AUDIO
    TITLE "1Q_t_0288-0300_20"
    INDEX 01 00:32:04
  TRACK 21 AUDIO
    TITLE "1Q_t_0288-0300_21"
    INDEX 01 00:32:22
  TRACK 22 AUDIO
    TITLE "1Q_t_0288-0300_22"
    INDEX 01 00:33:74
  TRACK 23 AUDIO
    TITLE "1Q_t_0288-0300_23"
    INDEX 01 00:34:13
  TRACK 24 AUDIO
    TITLE "1Q_t_0288-0300_24"
    INDEX 01 00:40:37
  TRACK 25 AUDIO
    TITLE "1Q_t_0288-0300_25"
    INDEX 01 00:41:15
  TRACK 26 AUDIO
    TITLE "1Q_t_0288-0300_26"
    INDEX 01 00:42:19
  TRACK 27 AUDIO
    TITLE "1Q_t_0288-0300_27"
    INDEX 01 00:42:36
  TRACK 28 AUDIO
    TITLE "1Q_t_0288-0300_28"
    INDEX 01 00:44:55
  TRACK 29 AUDIO
    TITLE "1Q_t_0288-0300_29"
    INDEX 01 00:44:68
  TRACK 30 AUDIO
    TITLE "1Q_t_0288-0300_30"
    INDEX 01 00:52:29
  TRACK 31 AUDIO
    TITLE "1Q_t_0288-0300_31"
    INDEX 01 00:53:05
  TRACK 32 AUDIO
    TITLE "1Q_t_0288-0300_32"
    INDEX 01 00:54:31
  TRACK 33 AUDIO
    TITLE "1Q_t_0288-0300_33"
    INDEX 01 00:54:49
  TRACK 34 AUDIO
    TITLE "1Q_t_0288-0300_34"
    INDEX 01 00:57:24
  TRACK 35 AUDIO
    TITLE "1Q_t_0288-0300_35"
    INDEX 01 00:57:38
  TRACK 36 AUDIO
    TITLE "1Q_t_0288-0300_36"
    INDEX 01 01:02:54
  TRACK 37 AUDIO
    TITLE "1Q_t_0288-0300_37"
    INDEX 01 01:03:34
  TRACK 38 AUDIO
    TITLE "1Q_t_0288-0300_38"
    INDEX 01 01:04:55
  TRACK 39 AUDIO
    TITLE "1Q_t_0288-0300_39"
    INDEX 01 01:05:00
  TRACK 40 AUDIO
    TITLE "1Q_t_0288-0300_40"
    INDEX 01 01:07:32
  TRACK 41 AUDIO
    TITLE "1Q_t_0288-0300_41"
    INDEX 01 01:07:48
  TRACK 42 AUDIO
    TITLE "1Q_t_0288-0300_42"
    INDEX 01 01:12:47
  TRACK 43 AUDIO
    TITLE "1Q_t_0288-0300_43"
    INDEX 01 01:13:25
  TRACK 44 AUDIO
    TITLE "1Q_t_0288-0300_44"
    INDEX 01 01:14:34
  TRACK 45 AUDIO
    TITLE "1Q_t_0288-0300_45"
    INDEX 01 01:14:52
  TRACK 46 AUDIO
    TITLE "1Q_t_0288-0300_46"
    INDEX 01 01:16:06
  TRACK 47 AUDIO
    TITLE "1Q_t_0288-0300_47"
    INDEX 01 01:16:19
  TRACK 48 AUDIO
    TITLE "1Q_t_0288-0300_48"
    INDEX 01 01:23:27
  TRACK 49 AUDIO
    TITLE "1Q_t_0288-0300_49"
    INDEX 01 01:24:09
  TRACK 50 AUDIO
    TITLE "1Q_t_0288-0300_50"
    INDEX 01 01:25:24
  TRACK 51 AUDIO
    TITLE "1Q_t_0288-0300_51"
    INDEX 01 01:25:40
  TRACK 52 AUDIO
    TITLE "1Q_t_0288-0300_52"
    INDEX 01 01:29:57
  TRACK 53 AUDIO
    TITLE "1Q_t_0288-0300_53"
    INDEX 01 01:29:71
  TRACK 54 AUDIO
    TITLE "1Q_t_0288-0300_54"
    INDEX 01 01:36:67
  TRACK 55 AUDIO
    TITLE "1Q_t_0288-0300_55"
    INDEX 01 01:37:47
  TRACK 56 AUDIO
    TITLE "1Q_t_0288-0300_56"
    INDEX 01 01:38:46
  TRACK 57 AUDIO
    TITLE "1Q_t_0288-0300_57"
    INDEX 01 01:39:24
  TRACK 58 AUDIO
    TITLE "1Q_t_0288-0300_58"
    INDEX 01 01:40:57
  TRACK 59 AUDIO
    TITLE "1Q_t_0288-0300_59"
    INDEX 01 01:40:73
  TRACK 60 AUDIO
    TITLE "1Q_t_0288-0300_60"
    INDEX 01 01:43:42
  TRACK 61 AUDIO
    TITLE "1Q_t_0288-0300_61"
    INDEX 01 01:43:57
  TRACK 62 AUDIO
    TITLE "1Q_t_0288-0300_62"
    INDEX 01 01:49:27
  TRACK 63 AUDIO
    TITLE "1Q_t_0288-0300_63"
    INDEX 01 01:50:06
  TRACK 64 AUDIO
    TITLE "1Q_t_0288-0300_64"
    INDEX 01 01:51:29
  TRACK 65 AUDIO
    TITLE "1Q_t_0288-0300_65"
    INDEX 01 01:51:47
  TRACK 66 AUDIO
    TITLE "1Q_t_0288-0300_66"
    INDEX 01 01:54:57
  TRACK 67 AUDIO
    TITLE "1Q_t_0288-0300_67"
    INDEX 01 01:54:71
  TRACK 68 AUDIO
    TITLE "1Q_t_0288-0300_68"
    INDEX 01 02:01:45
  TRACK 69 AUDIO
    TITLE "1Q_t_0288-0300_69"
    INDEX 01 02:02:25
  TRACK 70 AUDIO
    TITLE "1Q_t_0288-0300_70"
    INDEX 01 02:03:70
  TRACK 71 AUDIO
    TITLE "1Q_t_0288-0300_71"
    INDEX 01 02:04:09
  TRACK 72 AUDIO
    TITLE "1Q_t_0288-0300_72"
    INDEX 01 02:05:16
  TRACK 73 AUDIO
    TITLE "1Q_t_0288-0300_73"
    INDEX 01 02:05:30
  TRACK 74 AUDIO
    TITLE "1Q_t_0288-0300_74"
    INDEX 01 02:10:58
  TRACK 75 AUDIO
    TITLE "1Q_t_0288-0300_75"
    INDEX 01 02:11:36
  TRACK 76 AUDIO
    TITLE "1Q_t_0288-0300_76"
    INDEX 01 02:12:45
  TRACK 77 AUDIO
    TITLE "1Q_t_0288-0300_77"
    INDEX 01 02:12:61
  TRACK 78 AUDIO
    TITLE "1Q_t_0288-0300_78"
    INDEX 01 02:15:57
  TRACK 79 AUDIO
    TITLE "1Q_t_0288-0300_79"
    INDEX 01 02:16:00
  TRACK 80 AUDIO
    TITLE "1Q_t_0288-0300_80"
    INDEX 01 02:21:21
